Land_normalized_Motion_pl02
version=1
nRows=25
nColumns=43
inDegrees=yes
endheader
time		pelvis_tilt		pelvis_list		pelvis_rotation		pelvis_tx		pelvis_ty		pelvis_tz		hip_flexion_r		hip_adduction_r		hip_rotation_r		knee_angle_r		ankle_angle_r		subtalar_angle_r		mtp_angle_r		hip_flexion_l		hip_adduction_l		hip_rotation_l		knee_angle_l		ankle_angle_l		subtalar_angle_l		mtp_angle_l		lumbar_extension		lumbar_bending		lumbar_rotation		neck_flexion		neck_lateral_bending		neck_rotation		arm_flex_r		arm_add_r		arm_rot_r		elbow_flex_r		pro_sup_r		wrist_flex_r		wrist_dev_r		hand_finger_flex_r		arm_flex_l		arm_add_l		arm_rot_l		elbow_flex_l		pro_sup_l		wrist_flex_l		wrist_dev_l		hand_finger_flex_l		
0.863333		-0.862361		15.533898		89.033781		0.013382		0.464594		0.482651		83.764502		-2.752326		2.103378		-139.199017		19.844334		-0.667294		17.881446		81.367585		-5.178406		5.777048		-137.743535		19.320844		21.006328		34.127917		-65.380954		0.913099		6.147795		24.890220		-0.062036		-5.867140		64.384993		-31.616408		10.529698		73.894555		123.138325		18.557691		-15.571465		-13.238236		58.447650		-29.070685		20.684581		62.875355		135.074442		-33.956645		-7.910383		-19.234666		
0.866111		-1.025418		15.581172		89.064994		0.013501		0.460244		0.481225		84.280098		-2.822847		2.462154		-139.925463		20.153061		0.013296		17.927263		81.780412		-5.266157		5.698173		-138.392596		19.480603		21.157939		34.298586		-65.562438		0.773156		6.135478		25.087239		-0.149497		-5.964108		66.525336		-31.452523		11.575445		73.710950		122.832724		18.600804		-15.332426		-13.394539		60.573413		-28.878829		21.606882		62.487825		134.780189		-34.239579		-7.733899		-19.224501		
0.868889		-1.140554		15.603014		89.066647		0.013598		0.455961		0.479820		84.813229		-2.865569		2.789721		-140.613368		20.391978		0.612192		18.036774		82.226597		-5.379703		5.654684		-139.043629		19.636372		21.271147		34.422986		-65.720165		0.657136		6.171093		25.311365		-0.257426		-6.063273		68.645554		-31.307875		12.644872		73.538899		122.535159		18.690623		-15.068444		-13.538021		62.598027		-28.664767		22.337143		62.155683		134.625278		-34.214387		-7.664940		-19.158984		
0.871667		-1.238703		15.602966		89.060208		0.013714		0.451784		0.478451		85.366610		-2.902650		3.090457		-141.274565		20.577532		1.161216		18.153935		82.683693		-5.488609		5.627574		-139.669313		19.788420		21.366828		34.526035		-65.857523		0.546719		6.208431		25.544815		-0.355712		-6.139310		70.725306		-31.138756		13.680753		73.360823		122.306650		18.781994		-14.813347		-13.649401		64.568945		-28.473913		23.017586		61.850201		134.539153		-34.101257		-7.641612		-19.086561		
0.874444		-1.315966		15.593881		89.041057		0.013822		0.447638		0.477082		85.941714		-2.916488		3.375052		-141.927427		20.699476		1.628949		18.270763		83.170198		-5.602705		5.622184		-140.307017		19.936421		21.456380		34.588258		-65.983977		0.455354		6.259259		25.759926		-0.473976		-6.195580		72.809879		-30.966742		14.736290		73.176133		122.285724		18.909345		-14.615079		-13.651725		66.476825		-28.296664		23.606597		61.572685		134.577019		-33.819399		-7.669369		-18.994274		
0.877222		-1.394723		15.606974		89.028621		0.013971		0.443755		0.475854		86.474216		-2.955930		3.658941		-142.538623		20.830499		2.219912		18.418760		83.600364		-5.706181		5.631629		-140.883061		20.068707		21.555166		34.640280		-66.145660		0.363252		6.292876		25.945254		-0.623357		-6.246460		74.901967		-30.789278		15.831613		72.930846		122.238013		18.941997		-14.453308		-13.659327		68.367922		-28.122481		24.193208		61.304059		134.561656		-33.602719		-7.650051		-18.943105		
0.880000		-1.497853		15.774818		89.052193		0.013841		0.440340		0.474692		86.772361		-3.039081		4.116449		-143.121289		21.082499		3.365966		18.800567		83.840401		-5.759011		5.573288		-141.442650		20.180717		21.699857		34.704944		-66.467345		0.336993		6.269370		26.084398		-0.900907		-6.271712		77.144051		-30.667880		17.299796		72.500578		121.725376		18.484097		-14.364076		-13.771520		70.267775		-27.963727		24.978930		60.951854		134.073042		-33.804595		-7.361129		-19.068071		
0.882778		-1.562053		15.734596		89.081216		0.014090		0.436562		0.473382		87.319822		-3.049111		4.320923		-143.705869		21.158119		3.643481		18.937515		84.350817		-5.838843		5.640648		-142.006535		20.262276		21.773140		34.735860		-66.568453		0.257392		6.251371		26.303418		-0.905353		-6.274595		79.067814		-30.396170		18.190592		72.285816		121.846191		18.564969		-14.192447		-13.619600		72.064428		-27.908448		25.545971		60.772872		134.182099		-33.456265		-7.527821		-18.937662		
0.885556		-1.626389		15.833377		89.114220		0.014116		0.433183		0.472138		87.656269		-3.080332		4.635948		-144.264970		21.320916		4.260994		19.170303		84.693573		-5.897096		5.698561		-142.552288		20.308823		21.983278		34.779087		-66.804318		0.234865		6.236079		26.430576		-1.092091		-6.262634		81.131903		-30.172302		19.365865		71.913144		121.863448		18.460545		-14.152125		-13.444557		73.840257		-27.808007		26.160343		60.505589		134.047296		-33.328867		-7.507913		-18.889519		
0.888333		-1.682330		16.020009		89.174980		0.014015		0.430149		0.470912		87.820555		-3.142183		5.001615		-144.791706		21.573244		5.116872		19.544116		84.928303		-5.925130		5.773827		-143.083432		20.335690		22.275776		34.847750		-67.137360		0.261996		6.188620		26.576944		-1.300872		-6.225923		83.214668		-29.907573		20.643726		71.421431		121.642189		18.048501		-14.223288		-13.230012		75.595478		-27.752872		26.878400		60.228522		133.636480		-33.462238		-7.397677		-18.915692		
0.891111		-1.744021		16.111755		89.228624		0.014071		0.427011		0.469627		88.089003		-3.187253		5.265438		-145.309664		21.767645		5.589915		19.797251		85.274400		-5.976642		5.888412		-143.600436		20.316394		22.566964		34.928692		-67.363691		0.241673		6.148839		26.718976		-1.406006		-6.201844		85.126930		-29.590503		21.647205		71.018638		121.593206		17.945070		-14.196651		-12.974516		77.292414		-27.687658		27.482718		59.987355		133.483387		-33.376124		-7.468798		-18.848136		
0.893889		-1.803568		16.252326		89.282622		0.014035		0.424073		0.468350		88.264324		-3.244227		5.559592		-145.805664		22.001217		6.135317		20.089414		85.559660		-6.018104		6.016673		-144.114321		20.266956		22.935530		35.038472		-67.635162		0.242273		6.110972		26.836760		-1.545526		-6.177280		87.045311		-29.265705		22.710450		70.554025		121.469432		17.788285		-14.211065		-12.712539		78.955550		-27.619588		28.111541		59.721144		133.239893		-33.376058		-7.506747		-18.807567		
0.896667		-1.866008		16.412673		89.331677		0.014012		0.421384		0.467154		88.390161		-3.332079		5.813496		-146.260059		22.228725		6.655427		20.384268		85.789276		-6.067592		6.160140		-144.578695		20.201139		23.388341		35.207753		-67.941811		0.234518		6.078071		26.963639		-1.687648		-6.162131		88.929250		-28.914121		23.721315		70.051749		121.279678		17.641981		-14.251149		-12.505925		80.590465		-27.520415		28.705356		59.454113		132.933675		-33.417586		-7.539528		-18.798304		
0.899444		-1.937833		16.476167		89.370297		0.014096		0.418655		0.465970		88.627198		-3.427701		5.985310		-146.690807		22.428457		6.962168		20.589170		86.110918		-6.130673		6.282836		-145.008367		20.122530		23.713039		35.335746		-68.145784		0.184412		6.036881		27.055849		-1.728452		-6.177578		90.654869		-28.510164		24.512323		69.615981		121.239992		17.619941		-14.193655		-12.351793		82.155355		-27.409178		29.186316		59.242134		132.800171		-33.305538		-7.635724		-18.749316		
0.902222		-2.003476		16.712053		89.402882		0.013984		0.416424		0.464865		88.640012		-3.558499		6.223651		-147.097006		22.620278		7.425530		20.901523		86.190649		-6.180085		6.438486		-145.421206		20.049303		24.271585		35.605669		-68.541536		0.183032		6.014409		27.174118		-1.906106		-6.185638		92.514683		-28.142769		25.533322		69.035742		121.004937		17.473850		-14.308334		-12.270790		83.735270		-27.289747		29.778428		58.966288		132.282606		-33.394346		-7.626517		-18.828292		
0.905000		-2.078195		16.740183		89.424899		0.014062		0.413840		0.463725		88.934433		-3.673495		6.333595		-147.510794		22.763690		7.539691		21.052720		86.513486		-6.247501		6.542461		-145.820638		19.973820		24.508564		35.737942		-68.699530		0.111661		5.962537		27.187915		-1.882146		-6.227043		94.106821		-27.705595		26.194217		68.616589		121.089631		17.539367		-14.192330		-12.181218		85.214190		-27.179895		30.202136		58.785855		132.175262		-33.177634		-7.757498		-18.780087		
0.907778		-2.144085		16.996665		89.464408		0.013970		0.412078		0.462716		88.887387		-3.833402		6.474833		-147.856381		22.849538		7.798873		21.351708		86.485038		-6.294438		6.652698		-146.147207		19.938356		24.983275		36.071754		-69.132895		0.119430		5.939276		27.308105		-2.044011		-6.253699		95.846314		-27.288684		27.073408		68.018575		120.972063		17.380614		-14.357903		-12.213488		86.720299		-27.052670		30.760229		58.534933		131.410750		-33.246228		-7.741204		-18.945722		
0.910556		-2.205735		17.042160		89.503026		0.014025		0.409932		0.461630		89.120630		-3.961759		6.518511		-148.218554		22.900780		7.812242		21.482584		86.716434		-6.351980		6.707010		-146.478990		19.915561		25.139762		36.226630		-69.314476		0.078175		5.883303		27.304821		-1.999441		-6.303273		97.312438		-26.804708		27.614468		67.570197		121.144769		17.424371		-14.269628		-12.184015		88.114753		-26.936422		31.132173		58.355587		131.161236		-33.049254		-7.855202		-18.956108		
0.913333		-2.264343		17.243794		89.562775		0.013973		0.408356		0.460674		89.142688		-4.123418		6.576147		-148.550170		22.899776		7.843414		21.693528		86.706051		-6.382025		6.755958		-146.763454		19.919019		25.374368		36.500707		-69.690551		0.088985		5.827291		27.370512		-2.076437		-6.328049		98.859625		-26.326560		28.255548		67.024938		121.264332		17.342206		-14.376570		-12.234536		89.534909		-26.841539		31.619243		58.143837		130.483016		-33.021758		-7.917202		-19.113521		
0.916111		-2.314241		17.277977		89.624245		0.014029		0.406517		0.459628		89.368207		-4.247939		6.586302		-148.886571		22.882283		7.807123		21.771378		86.900192		-6.423882		6.781275		-147.051267		19.942122		25.430303		36.609615		-69.864106		0.072172		5.754124		27.336756		-1.992945		-6.374282		100.185337		-25.803076		28.645508		66.590383		121.500351		17.397040		-14.249666		-12.211175		90.835435		-26.733098		31.908689		57.968990		130.334082		-32.819244		-8.042290		-19.108485		
0.918889		-2.371672		17.415048		89.715631		0.014037		0.405131		0.458701		89.454166		-4.392616		6.607773		-149.193390		22.824211		7.739645		21.863720		86.911968		-6.435820		6.779924		-147.296984		19.981023		25.486174		36.744583		-70.174495		0.091155		5.658926		27.355831		-1.985248		-6.388800		101.540502		-25.264232		29.059049		66.100912		121.746059		17.409970		-14.226685		-12.222252		92.150391		-26.650194		32.241178		57.772487		130.038863		-32.703430		-8.149658		-19.162483		
0.921667		-2.419741		17.551239		89.817263		0.014058		0.403926		0.457805		89.510741		-4.525387		6.620270		-149.470163		22.746412		7.658664		21.962490		86.907843		-6.453058		6.757857		-147.528855		20.024784		25.496004		36.881359		-70.494485		0.119027		5.550965		27.404808		-1.950910		-6.386304		102.812530		-24.695296		29.364144		65.611882		121.980066		17.380860		-14.232689		-12.258123		93.432310		-26.573959		32.556933		57.575083		129.698098		-32.649951		-8.269357		-19.240386		
0.924444		-2.457438		17.551593		89.896685		0.014206		0.402650		0.456864		89.697202		-4.612432		6.603273		-149.726674		22.703062		7.631299		22.010383		87.056160		-6.490029		6.766859		-147.747139		20.060457		25.489250		36.944894		-70.679196		0.103098		5.484526		27.506902		-1.866517		-6.405125		103.849214		-24.145221		29.379629		65.266861		122.121112		17.311324		-14.154729		-12.292194		94.543223		-26.328960		32.543532		57.427151		129.521721		-32.602831		-8.280762		-19.266155		
0.927222		-2.505921		17.717171		90.008609		0.014158		0.401802		0.456077		89.693604		-4.754368		6.642390		-149.969001		22.568303		7.522983		22.083309		86.972469		-6.504921		6.697178		-147.953063		20.103307		25.481700		37.033736		-71.048696		0.151847		5.350143		27.536474		-1.818744		-6.373492		105.077341		-23.531912		29.599664		64.758369		122.392873		17.387559		-14.109148		-12.274532		95.813897		-26.311356		32.879220		57.178471		129.405701		-32.507897		-8.495977		-19.285771		
0.930000		-2.566959		17.867208		90.120982		0.014170		0.401117		0.455331		89.683059		-4.887200		6.681919		-150.181659		22.445025		7.419356		22.188419		86.888006		-6.525299		6.613819		-148.145676		20.140381		25.448520		37.127469		-71.418264		0.176582		5.226278		27.661941		-1.758277		-6.335328		106.180541		-22.905595		29.614012		64.271820		122.646493		17.436533		-14.135096		-12.275175		97.018544		-26.185087		33.101566		56.921839		129.173427		-32.532658		-8.673085		-19.343940		
